<?xml version="1.0" encoding="utf-8"?>
<!-- Generator: Adobe Illustrator 16.0.0, SVG Export Plug-In . SVG Version: 6.00 Build 0)  -->
<!DOCTYPE svg PUBLIC "-//W3C//DTD SVG 1.0//EN" "http://www.w3.org/TR/2001/REC-SVG-20010904/DTD/svg10.dtd">
<svg version="1.0" xmlns="http://www.w3.org/2000/svg" xmlns:xlink="http://www.w3.org/1999/xlink" x="0px" y="0px" width="200px"
	 height="200px" viewBox="0 0 200 200" enable-background="new 0 0 200 200" xml:space="preserve">
<g id="icon-dia-noche" display="none">
	<g display="inline">
		<circle fill="none" stroke="#878787" stroke-width="4" stroke-miterlimit="10" cx="100" cy="100" r="56.496"/>
		<path fill="#787777" d="M100,48.934c53.618,49.128,4.748,96.727,0,103.166c0,0,50.773-3.102,51.808-52.1
			C151.032,50.227,100,48.934,100,48.934z M119.322,143.793l-1.903-1.002l-1.905,1.002l0.363-2.121l-1.539-1.5l2.129-0.311
			l0.952-1.93l0.951,1.93l2.13,0.311l-1.542,1.5L119.322,143.793z M123.334,132.59l-1.904-1.002l-1.904,1.002l0.363-2.119
			l-1.539-1.504l2.129-0.311l0.951-1.928l0.952,1.928l2.13,0.311l-1.541,1.504L123.334,132.59z M138.284,79.35l0.951-1.929
			l0.952,1.929l2.129,0.31l-1.541,1.502l0.365,2.12l-1.905-1.001l-1.904,1.001l0.364-2.12l-1.54-1.502L138.284,79.35z
			 M119.322,61.707l-1.903-1.001l-1.905,1.001l0.363-2.12l-1.539-1.501l2.129-0.311l0.952-1.93l0.951,1.93l2.13,0.311l-1.542,1.501
			L119.322,61.707z M127.594,76.42l-1.905,1.001l0.363-2.12l-1.539-1.502l2.129-0.311l0.952-1.929l0.951,1.929l2.13,0.311
			l-1.541,1.502l0.363,2.12L127.594,76.42z M135.66,126.729l-1.904-1.001l-1.905,1.001l0.364-2.12l-1.54-1.503l2.129-0.309
			l0.952-1.93l0.951,1.93l2.13,0.309l-1.54,1.503L135.66,126.729z M141.141,95.269l-1.905-1.001l-1.904,1.001l0.364-2.12
			l-1.54-1.502l2.129-0.31l0.951-1.93l0.952,1.93l2.129,0.31l-1.541,1.502L141.141,95.269z"/>
		<g>
			<path fill="#787777" d="M64.784,91.564h-1.812c0.401-2.206,1.164-4.12,2.285-5.739c1.119-1.618,2.524-2.879,4.214-3.78
				c1.689-0.902,3.54-1.353,5.555-1.353c1.365,0,2.652,0.245,3.86,0.734c1.208,0.49,2.254,1.178,3.138,2.062s1.57,1.939,2.062,3.165
				c0.49,1.225,0.735,2.521,0.735,3.886c0,1.576-0.39,3.279-1.168,5.108c-0.779,1.828-2.172,3.995-4.177,6.5
				c-2.004,2.503-4.688,5.339-8.048,8.507h11.79c0.56,0,0.977-0.127,1.248-0.381c0.271-0.253,0.635-0.818,1.09-1.693h1.864
				l-2.81,8.378h-22.82v-1.365l5.724-5.042c2.766-2.434,4.951-4.645,6.553-6.632c1.603-1.986,2.709-3.764,3.322-5.33
				c0.611-1.567,0.919-3.121,0.919-4.662c0-2.223-0.634-4.057-1.904-5.501c-1.27-1.444-2.91-2.167-4.924-2.167
				c-1.541,0-2.915,0.474-4.123,1.418C66.149,88.622,65.291,89.918,64.784,91.564z"/>
			<path fill="#787777" d="M110.608,116.958h-6.669v-9.034H90.047v-5.042l16.413-22.189h4.148v22.531h4.938v4.7h-4.938V116.958z
				 M103.939,103.224V89.646h-0.105l-10.005,13.577H103.939z"/>
		</g>
	</g>
</g>
<g id="icon-phone" display="none">
	<g display="inline">
		<g>
			<defs>
				<rect id="SVGID_1_" x="43.55" y="43.504" width="112.9" height="112.992"/>
			</defs>
			<clipPath id="SVGID_2_">
				<use xlink:href="#SVGID_1_"  overflow="visible"/>
			</clipPath>
			<path clip-path="url(#SVGID_2_)" d="M86.725,112.962c10.097,10.017,21.779,19.595,26.364,14.974
				c6.576-6.621,10.62-12.379,25.194-0.75s3.441,19.456-2.919,25.87c-7.34,7.396-34.841,0.513-62.097-26.537
				c-27.26-27.06-34.348-54.504-26.996-61.899c6.359-6.414,14.105-17.601,25.833-3.107c11.747,14.482,6.017,18.573-0.548,25.186
				C66.959,91.318,76.626,102.937,86.725,112.962L86.725,112.962z M101.36,65.141c0,0-3.044-0.478-5.179,1.658
				c-2.189,2.196-2.288,5.981,0.027,8.296c1.37,1.358,3.297,1.657,3.297,1.657c3.756,0.701,9.413,1.892,15.447,7.918
				c6.018,6.025,7.216,11.691,7.918,15.447c0,0,0.288,1.928,1.657,3.297c2.315,2.314,6.099,2.216,8.288,0.029
				c2.134-2.137,1.665-5.182,1.665-5.182c-1.197-7.61-4.892-15.565-11.223-21.898C116.926,70.022,108.973,66.34,101.36,65.141
				L101.36,65.141z M129.934,69.69c11.043,11.043,15.755,23.581,14.224,33.743c0,0-0.532,3.214,1.566,5.313
				c2.36,2.372,6.107,2.234,8.323,0.019c1.423-1.423,1.738-3.738,1.738-3.738c1.262-8.773-0.333-26.438-17.538-43.651
				c-17.213-17.204-34.877-18.799-43.65-17.537c0,0-2.315,0.306-3.738,1.738c-2.215,2.207-2.353,5.954,0.01,8.322
				c2.107,2.099,5.323,1.568,5.323,1.568C106.352,53.936,118.891,58.646,129.934,69.69L129.934,69.69z M129.934,69.69"/>
		</g>
	</g>
</g>
<g id="icon-location" display="none">
	<g display="inline">
		<path d="M100,26.766c-30.288,0-54.925,24.638-54.925,54.926c0,11.538,3.589,22.607,10.367,32.021l1.442,2.02l39.455,55.67
			c0.865,1.152,2.224,1.832,3.661,1.832c1.438,0,2.795-0.68,3.66-1.832l38.965-55.008l1.922-2.662
			c6.789-9.434,10.379-20.502,10.379-32.041C154.926,51.404,130.287,26.766,100,26.766L100,26.766z M100,100
			c-10.098,0-18.309-8.211-18.309-18.308c0-10.099,8.211-18.309,18.309-18.309s18.309,8.21,18.309,18.309
			C118.309,91.789,110.098,100,100,100L100,100z M100,100"/>
	</g>
</g>
<g id="icon-buscador" display="none">
	<g display="inline">
		<g>
			<defs>
				<rect id="SVGID_3_" x="51.014" y="50.936" width="97.973" height="98.129"/>
			</defs>
			<clipPath id="SVGID_4_">
				<use xlink:href="#SVGID_3_"  overflow="visible"/>
			</clipPath>
			<path clip-path="url(#SVGID_4_)" d="M114.43,61.805c-14.49-14.487-38.071-14.487-52.559,0c-14.476,14.491-14.476,38.058,0,52.547
				c12.911,12.895,32.994,14.274,47.468,4.201c0.308,1.44,1.013,2.821,2.132,3.94l21.082,21.098c3.082,3.067,8.049,3.067,11.102,0
				c3.082-3.065,3.082-8.034,0-11.101l-21.083-21.098c-1.119-1.119-2.499-1.809-3.94-2.116
				C128.704,94.783,127.324,74.697,114.43,61.805L114.43,61.805z M107.761,107.697c-10.81,10.81-28.413,10.81-39.222,0
				c-10.81-10.825-10.81-28.414,0-39.24c10.809-10.806,28.412-10.806,39.222,0C118.568,79.284,118.568,96.872,107.761,107.697
				L107.761,107.697z M107.761,107.697"/>
		</g>
	</g>
</g>
<g id="icon-facebook" display="none">
	<g display="inline">
		<g>
			<defs>
				<rect id="SVGID_5_" x="65.73" y="37.252" width="68.54" height="125.496"/>
			</defs>
			<clipPath id="SVGID_6_">
				<use xlink:href="#SVGID_5_"  overflow="visible"/>
			</clipPath>
			<path clip-path="url(#SVGID_6_)" d="M131.025,37.116l-16.273-0.024c-18.284,0-30.102,12.124-30.102,30.884v14.242H68.286
				c-1.409,0-2.556,1.141-2.556,2.556v20.635c0,1.408,1.147,2.556,2.556,2.556H84.65v52.062c0,1.41,1.147,2.557,2.562,2.557h21.342
				c1.414,0,2.561-1.146,2.561-2.557v-52.062h19.133c1.416,0,2.555-1.147,2.555-2.556l0.014-20.635c0-0.675-0.273-1.326-0.752-1.81
				c-0.479-0.478-1.129-0.746-1.811-0.746h-19.139V70.144c0-5.801,1.387-8.747,8.939-8.747l10.965-0.006
				c1.414,0,2.555-1.147,2.555-2.556V39.68C133.574,38.263,132.434,37.123,131.025,37.116L131.025,37.116z M131.025,37.116"/>
		</g>
	</g>
</g>
<g id="icon-twitter" display="none">
	<g display="inline">
		<path d="M164.044,60.275c-4.713,2.09-9.777,3.504-15.094,4.139c5.426-3.253,9.593-8.401,11.555-14.538
			c-5.078,3.011-10.702,5.198-16.688,6.376c-4.794-5.107-11.623-8.298-19.182-8.298c-14.512,0-26.279,11.766-26.279,26.277
			c0,2.059,0.233,4.065,0.682,5.99c-21.84-1.098-41.203-11.558-54.163-27.458c-2.263,3.882-3.559,8.396-3.559,13.213
			c0,9.116,4.639,17.16,11.689,21.873c-4.308-0.137-8.359-1.32-11.902-3.287c-0.002,0.109-0.002,0.22-0.002,0.331
			c0,12.731,9.059,23.353,21.079,25.767c-2.204,0.6-4.526,0.922-6.923,0.922c-1.693,0-3.34-0.164-4.944-0.473
			c3.344,10.439,13.049,18.037,24.548,18.25c-8.993,7.049-20.324,11.25-32.637,11.25c-2.121,0-4.213-0.125-6.269-0.369
			c11.629,7.459,25.441,11.809,40.282,11.809c48.337,0,74.768-40.043,74.768-74.769c0-1.139-0.025-2.272-0.076-3.399
			C156.066,70.173,160.521,65.545,164.044,60.275L164.044,60.275z M164.044,60.275"/>
	</g>
</g>
<g id="icon-google" display="none">
	<g display="inline">
		<path d="M108.18,114.827c-1.152-1.543-2.422-2.979-3.813-4.3c-1.391-1.329-2.782-2.532-4.172-3.618
			c-1.391-1.086-2.66-2.132-3.813-3.132c-1.152-0.996-2.086-2.039-2.8-3.125c-0.719-1.086-1.079-2.196-1.079-3.325
			c0-1.566,0.5-3.031,1.5-4.402c1-1.367,2.215-2.691,3.649-3.977c1.433-1.281,2.867-2.679,4.305-4.203
			c1.43-1.519,2.648-3.531,3.648-6.027c1-2.5,1.5-5.355,1.5-8.57c0-3.825-0.848-7.496-2.543-11.016
			c-1.695-3.519-4.086-6.258-7.172-8.215h8.801l8.797-5.148H86.507c-4.039,0-8.105,0.433-12.187,1.304
			c-6.039,1.348-11.121,4.422-15.25,9.223c-4.129,4.801-6.192,10.246-6.192,16.328c0,6.43,2.313,11.778,6.942,16.035
			c4.625,4.254,10.176,6.387,16.652,6.387c1.301,0,2.824-0.109,4.563-0.328c-0.09,0.348-0.239,0.816-0.457,1.402
			c-0.219,0.586-0.391,1.055-0.524,1.403c-0.129,0.347-0.238,0.769-0.324,1.269s-0.129,1.012-0.129,1.531
			c0,2.868,1.391,6.106,4.172,9.711c-3.305,0.091-6.562,0.384-9.777,0.884c-3.215,0.5-6.582,1.28-10.102,2.348
			c-3.519,1.062-6.672,2.604-9.453,4.625c-2.781,2.022-4.867,4.422-6.258,7.203c-1.605,3.215-2.41,6.147-2.41,8.801
			c0,2.91,0.652,5.551,1.957,7.918c1.301,2.367,2.973,4.301,5.016,5.801s4.402,2.757,7.074,3.781c2.672,1.019,5.32,1.75,7.949,2.183
			c2.629,0.435,5.227,0.653,7.789,0.653c11.645,0,20.77-2.848,27.375-8.539c6.082-5.301,9.125-11.43,9.125-18.383
			c0-2.478-0.359-4.789-1.078-6.942C110.266,118.215,109.332,116.37,108.18,114.827L108.18,114.827z M83.055,91.137
			c-2.219,0-4.324-0.566-6.324-1.695c-2-1.133-3.691-2.598-5.082-4.403c-1.391-1.8-2.609-3.832-3.652-6.093
			c-1.043-2.258-1.813-4.516-2.313-6.778c-0.5-2.258-0.75-4.41-0.75-6.453c0-4.172,1.11-7.754,3.324-10.754
			c2.215-3,5.344-4.496,9.387-4.496c2.867,0,5.465,0.891,7.789,2.672c2.324,1.781,4.149,4.039,5.473,6.777
			c1.328,2.739,2.347,5.571,3.066,8.504c0.715,2.934,1.074,5.703,1.074,8.313c0,4.343-0.945,7.832-2.835,10.461
			C90.32,89.82,87.27,91.137,83.055,91.137L83.055,91.137z M101.074,140.081c-1.196,2.043-2.813,3.642-4.856,4.789
			c-2.043,1.153-4.222,2-6.55,2.543c-2.325,0.548-4.766,0.817-7.333,0.817c-2.781,0-5.539-0.328-8.277-0.977
			c-2.738-0.652-5.355-1.645-7.851-2.966c-2.5-1.327-4.52-3.151-6.063-5.476s-2.312-4.965-2.312-7.922
			c0-2.606,0.586-4.93,1.757-6.973c1.176-2.044,2.672-3.673,4.496-4.887c1.829-1.219,3.958-2.219,6.391-3
			c2.434-0.781,4.777-1.325,7.039-1.629c2.258-0.305,4.563-0.457,6.906-0.457c1.438,0,2.524,0.046,3.262,0.132
			c0.258,0.173,0.922,0.629,1.988,1.368c1.063,0.738,1.782,1.238,2.149,1.5c0.371,0.261,1.043,0.761,2.019,1.5
			c0.981,0.738,1.676,1.293,2.086,1.66c0.414,0.371,1.012,0.926,1.793,1.664c0.782,0.738,1.36,1.379,1.727,1.922
			c0.371,0.543,0.828,1.203,1.371,1.984c0.543,0.785,0.922,1.535,1.141,2.25c0.215,0.719,0.422,1.5,0.617,2.348
			c0.195,0.847,0.293,1.726,0.293,2.64C102.867,135.652,102.27,138.038,101.074,140.081L101.074,140.081z M101.074,140.081"/>
		<path d="M137.543,62.457V45.77h-8.344v16.687h-16.684v8.34h16.684v16.688h8.344V70.796h16.684v-8.34H137.543z M137.543,62.457"/>
	</g>
</g>
<g id="icon-electricistas" display="none">
	<g display="inline">
		<path fill-rule="evenodd" clip-rule="evenodd" fill="#010202" d="M56.37,58.856c-2.941,1.167-4.381,4.499-3.214,7.441
			s4.498,4.38,7.44,3.213l25.714-10.23c2.94-1.167,4.381-4.498,3.211-7.438c-1.165-2.942-4.496-4.383-7.438-3.216L56.37,58.856
			L56.37,58.856z M50.909,77.083c-2.942,1.166-4.379,4.498-3.214,7.438c1.166,2.942,4.499,4.381,7.439,3.214l46.217-18.387
			c2.944-1.167,4.381-4.498,3.215-7.438c-1.167-2.942-4.497-4.381-7.44-3.216L50.909,77.083L50.909,77.083z M50.723,93.396
			c-2.94,1.167-4.381,4.497-3.214,7.437c1.167,2.943,4.498,4.382,7.44,3.215l46.588-18.536c2.94-1.168,4.382-4.498,3.214-7.441
			c-1.167-2.94-4.496-4.378-7.44-3.213L50.723,93.396L50.723,93.396z M63.299,104.8c-2.942,1.167-4.381,4.498-3.216,7.44
			c1.167,2.943,4.498,4.381,7.44,3.215l28.206-11.478c2.942-1.168,4.381-4.499,3.216-7.44c-1.169-2.94-4.498-4.379-7.44-3.214
			L63.299,104.8L63.299,104.8z M60.767,119.771h12.659c0.574-1.783,1.393-3.48,3.441-4.715l13.841-5.188
			c-3.978,2.763-5.96,6.377-6.979,9.903h7.765v9.379c0,2.484-1.557,4.654-3.745,5.545H64.512c-2.188-0.891-3.745-3.045-3.745-5.545
			V119.771L60.767,119.771z M86.261,137.699c-0.088,1.859-0.004,4.471-0.553,6.941c-2.73,0.686-4.797,3.162-4.75,6.098l0.001,0.178
			c-1.271,0.545-2.853,0.863-4.828,0.863c-1.973,0-3.556-0.318-4.83-0.863l0.004-0.178c0.046-2.941-2.021-5.412-4.751-6.098
			c-0.549-2.471-0.465-5.082-0.553-6.941H86.261L86.261,137.699z"/>
		<path fill-rule="evenodd" clip-rule="evenodd" fill="#010202" d="M118.466,79.979h18.627H118.466L118.466,79.979z
			 M137.381,149.875c-1.508,0.625-3.08,1.105-4.694,1.424c-1.595,0.314-3.236,0.48-4.906,0.48c-1.674,0-3.314-0.166-4.907-0.48
			c-1.615-0.318-3.188-0.799-4.697-1.424c-1.527-0.633-2.98-1.414-4.338-2.324c-1.369-0.918-2.647-1.969-3.809-3.127l-0.006-0.008
			l-0.006,0.008c-0.049-0.053-0.095-0.102-0.139-0.152c-1.106-1.125-2.109-2.355-2.99-3.67c-0.91-1.359-1.691-2.811-2.323-4.338
			c-0.626-1.51-1.105-3.082-1.423-4.697c-0.315-1.594-0.48-3.234-0.48-4.906c0-0.844,0.046-1.723,0.142-2.63
			c0.088-0.878,0.226-1.74,0.399-2.573c0.18-0.85,0.402-1.688,0.67-2.513c0.28-0.863,0.593-1.683,0.931-2.447
			c0.796-1.794,1.843-3.05,3.008-4.45l1.965,1.634l-1.196-0.997l-0.769-0.637h0.003l-0.009-0.01
			c0.048-0.059,0.103-0.113,0.154-0.168l0.002-0.004l0.002-0.003c0.809-0.969,1.673-2.028,2.542-3.401
			c1.088-1.717,1.468-3.191,1.902-4.881c0.391-1.516,0.818-3.176,1.675-5.227l2.365,0.983l-2.367-0.99l0.029-0.069
			c0.255-0.605,0.643-1.488,1.395-2.332c0.925-1.04,2.23-1.844,4.109-1.771v-0.002h16.33c0.067,0,0.138,0.002,0.204,0.008
			c3.647,0.029,4.791,2.848,5.239,3.96l-0.003,0.002l0,0l0.006-0.002l0.037,0.093h0.003l0.051,0.134
			c0.573,1.401,0.988,2.875,1.405,4.358c0.586,2.073,1.18,4.174,2.167,5.734c0.913,1.444,1.823,2.541,2.665,3.551l0.012,0.018
			l0.004-0.003l0.009,0.006l0.004-0.003c0.059,0.068,0.111,0.137,0.159,0.209c1.102,1.326,2.088,2.546,2.849,4.259
			c0.338,0.765,0.65,1.583,0.928,2.444c0.268,0.824,0.494,1.666,0.673,2.516c0.176,0.833,0.312,1.695,0.399,2.573
			c0.094,0.907,0.142,1.788,0.142,2.63c0,1.672-0.165,3.314-0.479,4.906c-0.318,1.615-0.799,3.188-1.424,4.697
			c-0.632,1.527-1.414,2.982-2.323,4.338c-0.933,1.395-1.983,2.674-3.13,3.822C143.228,146.734,140.46,148.602,137.381,149.875
			L137.381,149.875z M126.872,99.306c-0.016,4.692-0.241,8.523-1.111,12.276c-0.691,2.977-1.782,5.863-3.482,9.031l0.292-0.104
			c1.668-0.572,3.384-0.95,5.063-0.95c1.663,0,3.565,0.323,5.333,0.874l0.264,0.086c-1.671-3.129-2.748-5.988-3.434-8.938
			c-0.872-3.753-1.098-7.584-1.11-12.276H126.872L126.872,99.306z M131.764,99.306c0.015,4.489,0.223,8.125,1.028,11.589
			c0.83,3.571,2.31,7.032,4.89,11.171h0.003l0.039,0.066l0.133,0.184l-0.002,0.002l0.005-0.002c0.029,0.037,0.057,0.076,0.082,0.117
			c0.263,0.359,0.496,0.714,0.601,1.314c0.142,0.836-0.422,1.632-1.257,1.773c-0.301,0.052-0.593,0.013-0.853-0.096
			c-0.275-0.03-0.549-0.133-0.782-0.318c-0.886-0.691-2.183-1.295-3.599-1.736c-1.477-0.461-3.055-0.732-4.419-0.732
			c-1.307,0-2.693,0.31-4.063,0.781c-1.407,0.481-2.787,1.125-4.069,1.781c-0.332,0.27-0.774,0.397-1.227,0.32
			c-0.837-0.142-1.399-0.938-1.257-1.773c0.104-0.601,0.334-0.955,0.602-1.314c0.025-0.041,0.05-0.08,0.079-0.117l0.004,0.002
			l-0.004-0.002l0.138-0.184l0.037-0.066h0.005c2.579-4.139,4.06-7.6,4.886-11.171c0.807-3.465,1.016-7.101,1.03-11.589h-4.146
			h-0.033l-0.163-0.006v-0.004c-0.048-0.002-0.088,0.025-0.118,0.059c-0.194,0.221-0.379,0.639-0.502,0.933l-0.014,0.038l0,0
			l-0.005,0.004l-0.002-0.002c-0.75,1.797-1.117,3.22-1.451,4.517c-0.545,2.121-1.023,3.975-2.523,6.344
			c-1.022,1.619-2.017,2.831-2.939,3.941c-0.09,0.129-0.189,0.252-0.305,0.365l0,0c-0.849,1.019-1.602,1.953-2.097,3.066
			c-0.293,0.664-0.543,1.314-0.748,1.946c-0.213,0.653-0.391,1.318-0.532,1.995c-0.141,0.67-0.248,1.356-0.319,2.051
			c-0.067,0.641-0.101,1.346-0.101,2.107c0,1.354,0.13,2.666,0.38,3.924c0.255,1.313,0.635,2.563,1.122,3.736
			c0.499,1.205,1.119,2.357,1.844,3.436c0.695,1.041,1.49,2.016,2.372,2.91c0.046,0.041,0.092,0.082,0.134,0.127l-1.813,1.814
			l1.813-1.805c0.931,0.932,1.948,1.77,3.036,2.498c1.082,0.723,2.232,1.344,3.438,1.842c1.173,0.486,2.423,0.867,3.733,1.123
			c1.262,0.248,2.572,0.381,3.927,0.381c1.352,0,2.663-0.133,3.925-0.381c1.31-0.256,2.561-0.637,3.734-1.123
			c2.414-1,4.611-2.49,6.474-4.35c0.948-0.951,1.791-1.969,2.506-3.037c0.724-1.078,1.345-2.23,1.843-3.436
			c0.483-1.174,0.864-2.424,1.122-3.736c0.25-1.256,0.381-2.57,0.381-3.924c0-0.762-0.034-1.467-0.101-2.109
			c-0.071-0.692-0.181-1.379-0.322-2.049c-0.142-0.677-0.318-1.346-0.53-1.996c-0.203-0.631-0.455-1.283-0.75-1.945
			c-0.489-1.107-1.242-2.039-2.087-3.054c-0.049-0.052-0.1-0.104-0.146-0.161l0,0l-0.023-0.027l0.009-0.006l-0.024-0.029
			c-0.959-1.153-1.999-2.4-3.068-4.096c-1.39-2.194-2.083-4.652-2.764-7.077c-0.377-1.326-0.748-2.644-1.216-3.794l-0.058-0.134
			v-0.002l-0.051-0.115h0.004c-0.084-0.203-0.284-0.701-0.56-0.764l-0.134,0.004H131.764L131.764,99.306z M116.044,91.809
			c16.748,0,15.179,0,23.472,0v-5.638c0-1.898-1.186-3.554-2.86-4.235h-17.753c-1.673,0.681-2.858,2.331-2.858,4.235V91.809
			L116.044,91.809z M135.518,79.641c-0.066-1.419-0.003-3.416-0.421-5.304c-2.086-0.524-3.665-2.416-3.63-4.657v-0.138
			c-0.969-0.416-2.18-0.66-3.687-0.66c-1.509,0-2.72,0.244-3.69,0.66l0.002,0.138c0.034,2.247-1.543,4.132-3.629,4.657
			c-0.397,1.794-0.36,3.685-0.414,5.089l-0.009,0.214h6.642H135.518L135.518,79.641z"/>
	</g>
</g>
<g id="icon-reparacion-electrodomesticos">
	<path fill-rule="evenodd" clip-rule="evenodd" fill="#010202" d="M146.682,105.724c-5.965,20.144-24.604,34.845-46.682,34.845
		c-22.079,0-40.722-14.701-46.684-34.845H146.682L146.682,105.724z M82.239,78.936l3.802-3.801c0.769-0.77,1.923-0.644,2.8,0
		l4.75,3.486c0.876,0.641,0.767,2.03,0,2.798l-0.444,0.445l1.51,1.51c0.495,0.496,2.1,0.702,2.102,0l0.038-20.958
		c0.008-4.892,1.919-9.328,5.003-12.536l0.009-0.008l0.009-0.007c3.099-3.21,7.367-5.197,12.071-5.197h0.092h0.093
		c4.703,0,8.973,1.987,12.071,5.197l0.009,0.007l0.008,0.008c2.361,2.457,4.034,5.633,4.692,9.181
		c1.009,0.166,1.811,0.999,2.052,2.058l0.51,2.221c0.298,1.303-0.745,2.575-2.065,2.767l-4.963,0.721
		c-1.323,0.193-2.681-0.723-2.765-2.064l-0.147-2.272c-0.055-0.876,0.277-1.709,0.885-2.232c-1.04-4.785-5.371-8.975-10.379-9.119
		c-5.749,0.168-10.607,5.668-10.616,11.278l-0.037,20.958c-0.003,0.671,1.538,0.478,2.014,0l1.511-1.51l-0.443-0.445
		c-0.77-0.768-0.875-2.157,0-2.798l4.75-3.486c0.876-0.644,2.028-0.77,2.8,0l3.799,3.801c0.771,0.772,0.647,1.922,0,2.8l-3.481,4.75
		c-0.644,0.879-2.035,0.767-2.801,0l-0.445-0.443l-7.366,7.364c-0.063,0.067-0.134,0.124-0.21,0.172h46.7
		c2.657,0,4.831,2.172,4.831,4.829l0,0c0,2.655-2.183,4.827-4.831,4.827c-33.45,0-66.857,0-100.309,0
		c-2.647,0-4.827-2.172-4.827-4.827l0,0c0-2.657,2.169-4.829,4.827-4.829h46.704c-0.076-0.048-0.146-0.104-0.215-0.172l-7.366-7.364
		l-0.443,0.443c-0.768,0.767-2.155,0.879-2.801,0l-3.483-4.75C81.597,80.857,81.47,79.708,82.239,78.936L82.239,78.936z
		 M109.288,142.152v10.801c0,1.309-1.073,2.379-2.38,2.379H93.087c-1.307,0-2.377-1.07-2.377-2.379v-10.801
		c3.009,0.58,6.111,0.887,9.29,0.887C103.175,143.039,106.281,142.732,109.288,142.152L109.288,142.152z"/>
</g>
<g id="icon-limpieza-albanileria" display="none">
	<g display="inline">
		<path fill-rule="evenodd" clip-rule="evenodd" fill="#010202" d="M109.947,72.043l29.876-18.912
			c7.943-5.025,21.522,14.473,10.152,18.865L117.3,84.623C112.46,86.49,105.622,74.781,109.947,72.043L109.947,72.043z"/>
		<path fill-rule="evenodd" clip-rule="evenodd" fill="#010202" d="M122.966,129.145c2.133-0.596,2.433-6.138,0.346-7.451
			l-15.97-10.043l-23.764,6.812l13.237-14.741L84.113,93.116c-2.592-2.169-7.284-0.774-8.984,1.629l-28.97,41.028
			c-2.614,3.703,5.843,13.043,10.312,11.805L122.966,129.145L122.966,129.145z M113.488,81.815c1.219-0.703,1.488-2.367,0.607-3.716
			c-0.886-1.35-2.589-1.874-3.807-1.17l-8.777,5.496l1.598,2.443l-1.603-2.447c-0.783,0.453-1.175,1.3-1.121,2.207L99.809,106.1
			l-9.431,8.254l14.826-5.781l0.587-21.888L113.488,81.815L113.488,81.815z"/>
	</g>
</g>
<g id="icon-fontaneros" display="none">
	<g display="inline">
		<path fill-rule="evenodd" clip-rule="evenodd" fill="#010202" d="M136.26,124.897c-3.873,13.37-7.736,19.188-7.736,23.212
			s3.26,7.285,7.283,7.285c4.025,0,7.287-3.262,7.287-7.285S135.775,137.518,136.26,124.897L136.26,124.897z"/>
		<path fill-rule="evenodd" clip-rule="evenodd" fill="#010202" d="M55.977,86.429h1.732c1.071,0,1.946,0.88,1.946,1.945v18.44
			c0,1.068-0.879,1.947-1.946,1.947h-1.732c-1.067,0-1.946-0.875-1.946-1.947v-18.44C54.031,87.305,54.906,86.429,55.977,86.429
			L55.977,86.429z M85.854,72.813h25.775c1.066,0,1.943,0.874,1.943,1.945v2.824c0,1.07-0.877,1.945-1.943,1.945h-2.318v8.831
			c0.367,1.098,1.264,1.951,2.387,2.261c21.932,0,30.613,1.254,31.359,25.395h-13.555c0.371-8.984-1.174-11.881-9.258-12.031
			c-6.449-0.121-8.061,7.627-21.502,7.627c-13.47,0-14.871-7.396-21.38-7.396H62.295V90.619H85.78
			c1.125-0.31,2.021-1.165,2.392-2.263v-8.829h-2.318c-1.071,0-1.947-0.875-1.947-1.945v-2.824
			C83.907,73.687,84.783,72.813,85.854,72.813L85.854,72.813z M94.029,66.11h1.303v-7.48c1.042,0.46,2.195,0.719,3.409,0.719
			c1.214,0,2.367-0.258,3.409-0.719v7.48h1.3c1.303,0,2.366,1.065,2.366,2.366v1.978h-14.15v-1.978
			C91.667,67.175,92.73,66.11,94.029,66.11L94.029,66.11z M98.742,44.606c2.5,0,4.667,1.46,5.686,3.574l18.426-2.38
			c1.061-0.137,1.943,0.875,1.943,1.947v6.849c0,1.07-0.887,2.082-1.943,1.945l-18.687-2.411c-1.095,1.851-3.116,3.093-5.425,3.093
			c-2.31,0-4.33-1.242-5.429-3.093l-18.684,2.411c-1.055,0.136-1.947-0.875-1.947-1.945v-6.849c0-1.071,0.884-2.083,1.947-1.947
			l18.427,2.38C94.074,46.066,96.237,44.606,98.742,44.606L98.742,44.606z M144.385,118.778c0.9,0.169,1.584,0.968,1.584,1.911
			v6.168c0,1.064-0.879,1.943-1.941,1.943h-15.543c-1.068,0-1.947-0.873-1.947-1.943v-6.168c0-0.948,0.684-1.742,1.584-1.911
			H144.385L144.385,118.778z"/>
	</g>
</g>
<g id="icon-cerrajeros" display="none">
	<g display="inline">
		<path fill-rule="evenodd" clip-rule="evenodd" fill="#010202" d="M81.962,96.882c-1.166-1.456-1.369-3.525,0-4.795l45.695-42.387
			c1.368-1.27,3.489-1.309,4.798,0l14.495,14.497l0.434,0.349l2.52,11.533l-11.796-0.542l2.518,11.533l-11.79-0.543l2.519,11.533
			l-11.791-0.541l2.518,11.531l-11.795-0.541l2.518,11.533l-11.79-0.541l2.518,11.531l-7.63-0.352l0.812-10.493
			C97.055,110.296,87.618,103.952,81.962,96.882L81.962,96.882z"/>
		<path fill-rule="evenodd" clip-rule="evenodd" fill="#010202" d="M50.634,120.221l23.634-23.632c0.812-0.812,2.248-0.905,2.952,0
			c4.384,5.66,11.441,11.585,14.981,17.373c2.578,4.213,0.935,21.168-0.219,21.982l-20.845,14.709c-0.931,0.658-2.335,0.969-2.952,0
			l-17.551-27.479C50.019,122.204,49.823,121.032,50.634,120.221L50.634,120.221z M60.616,116.694l6.002-6.003
			c0.852-0.847,2.037-0.645,2.638,0.452l12.499,22.829c0.601,1.098,0.593,2.945-0.454,3.537l-7.658,4.346
			c-1.042,0.594-2.065,0.664-2.633-0.449L60.166,120.23C59.597,119.119,59.769,117.545,60.616,116.694L60.616,116.694z"/>
	</g>
</g>
<g id="icon-calderas" display="none">
	<g display="inline">
		<path fill="#010202" d="M43.219,108.699v18.508c0,3.793,3.075,6.867,6.868,6.867v-32.241
			C46.294,101.833,43.219,104.907,43.219,108.699z"/>
		<path fill="#010202" d="M69.844,137.689h-3.021c-0.341,2.092-1.539,3.893-3.218,5.045v1.223h9.275v-1.348
			C71.295,141.453,70.172,139.703,69.844,137.689z"/>
		<path fill="#010202" d="M123.951,137.689h-3.02c-0.326,1.996-1.432,3.73-2.992,4.885v1.383h9.275v-1.195
			C125.512,141.613,124.295,139.799,123.951,137.689z"/>
		<path fill="#010202" d="M70.945,145.115h-1.404v2.713h-2.589v-2.713H65.54c-0.502,0-0.91,0.41-0.91,0.91v6.26
			c0,0.504,0.408,0.91,0.91,0.91h1.412v-2.709h2.589v2.709h1.404c0.502,0,0.91-0.406,0.91-0.91v-6.26
			C71.854,145.525,71.447,145.115,70.945,145.115z"/>
		<path fill="#010202" d="M125.279,145.115h-1.404v2.713h-2.59v-2.713h-1.41c-0.504,0-0.912,0.41-0.912,0.91v6.26
			c0,0.504,0.408,0.91,0.912,0.91h1.41v-2.709h2.59v2.709h1.404c0.504,0,0.91-0.406,0.91-0.91v-6.26
			C126.189,145.525,125.783,145.115,125.279,145.115z"/>
		<path fill="#010202" d="M43.219,59.735v9.461c0,2.259,1.831,4.09,4.09,4.09h2.778V55.646h-2.778
			C45.05,55.646,43.219,57.477,43.219,59.735z"/>
		<path fill="#010202" d="M154.75,84.379v-4.352c0-0.579-0.469-1.048-1.047-1.048s-1.049,0.469-1.049,1.048v4.352h-3.982v-4.352
			c0-0.579-0.471-1.048-1.049-1.048s-1.047,0.469-1.047,1.048v4.352h-2.031v6.092c0,2.258,1.83,4.088,4.09,4.088h0.248
			c-0.057,4.616-0.168,16.362,0.025,26.792c0.055,3.053-0.771,5.27-2.529,6.781c-2.631,2.262-6.754,2.412-9.066,2.285v-77.76
			c0-3.232-2.619-5.854-5.854-5.854c-3.232,0-5.854,2.621-5.854,5.854v2.518h-6.328v-2.518c0-3.232-2.621-5.854-5.854-5.854
			s-5.854,2.621-5.854,5.854v2.518h-6.329v-2.518c0-3.232-2.62-5.854-5.854-5.854c-3.233,0-5.854,2.621-5.854,5.854v2.518h-6.328
			v-2.518c0-3.232-2.62-5.854-5.854-5.854c-3.232,0-5.854,2.621-5.854,5.854v2.518h-6.329v-2.518c0-3.232-2.621-5.854-5.854-5.854
			c-3.233,0-5.854,2.621-5.854,5.854v83.803c0,3.234,2.621,5.854,5.854,5.854c3.232,0,5.854-2.619,5.854-5.854v-0.523h6.329v0.523
			c0,3.234,2.621,5.854,5.854,5.854c3.234,0,5.854-2.619,5.854-5.854v-0.523h6.328v0.523c0,3.234,2.621,5.854,5.854,5.854
			c3.234,0,5.854-2.619,5.854-5.854v-0.523h6.329v0.523c0,3.234,2.621,5.854,5.854,5.854s5.854-2.619,5.854-5.854v-0.523h6.328
			v0.523c0,3.234,2.621,5.854,5.854,5.854c3.234,0,5.854-2.619,5.854-5.854v-2.531c0.352,0.018,0.723,0.027,1.127,0.027
			c2.939,0,7.154-0.535,10.211-3.154c2.572-2.203,3.84-5.404,3.762-9.518c-0.191-10.418-0.08-22.165-0.023-26.726h0.305
			c2.256,0,4.088-1.831,4.088-4.088v-6.092H154.75z M71.498,128.496h-6.329V62.615h6.329V128.496z M89.533,128.496h-6.328V62.615
			h6.328V128.496z M107.57,128.496h-6.329V62.615h6.329V128.496z M125.605,128.496h-6.328V62.615h6.328V128.496z"/>
	</g>
</g>
<g id="icon-desatascos" display="none">
	<g display="inline">
		<path fill-rule="evenodd" clip-rule="evenodd" fill="#010202" d="M47.289,68.884h6.064c1.128,0,2.074,0.793,2.32,1.847v24.247
			c-0.246,1.056-1.21,1.848-2.32,1.848h-6.064V68.884L47.289,68.884z M141.372,78.824h9.285c1.15,0.144,2.054,1.132,2.054,2.323
			c0,1.028-0.682,1.94-1.665,2.239h-38.374c-0.955-0.293-1.66-1.187-1.66-2.239c0-1.177,0.886-2.177,2.054-2.323h9.378
			c0-11.069-0.016-17.975-0.016-29.044c0-1.308,1.07-2.381,2.379-2.381h14.225c1.308,0,2.383,1.087,2.383,2.381
			C141.414,60.849,141.372,67.753,141.372,78.824L141.372,78.824z M144.051,94.125c0,7.599-0.065,11.529-0.065,19.164
			c0,1.311-1.075,2.381-2.379,2.381h-1.496v0.006h-16.629v-0.006h-1.365c-1.304,0-2.382-1.07-2.382-2.381c0-7.564,0-11.561,0-19.123
			l-0.813-0.041c-1.3,0-2.379-1.072-2.379-2.38v-3.75c0-1.017,1.071-2.229,2.035-2.229h26.563c0.963,0,2.038,1.226,2.038,2.229v3.75
			c0,1.302-1.079,2.38-2.385,2.38H144.051L144.051,94.125z M58.053,71.367h5.491c0.869,0,1.636,0.476,2.05,1.179v20.618
			c-0.414,0.706-1.193,1.179-2.05,1.179h-5.491V71.367L58.053,71.367z M67.977,74.377l9.841,0.057
			c19.773,0.141,28.277,9.372,28.277,29.084v2.819H89.463v-2.819c0-10.396-1.181-12.446-11.711-12.52l-9.775-0.06V74.377
			L67.977,74.377z M106.095,108.717v0.059h0.837c1.308,0,2.378,1.07,2.378,2.379v2.9c0,1.309-1.07,2.381-2.378,2.381h-0.837v1.568
			c0,6.061,2.342,9.744,5.34,11.189c1.028,0.496,2.177,0.742,3.354,0.742s2.325-0.246,3.351-0.742
			c2.789-1.344,5.006-5.813,5.306-11.137h16.645c-0.39,12.678-6.717,22.205-14.741,26.074c-0.936,0.453-1.891,0.842-2.863,1.168
			c0.009,0.092,0.013,0.186,0.013,0.277v3.859c0,1.742-1.422,3.166-3.165,3.166h-10.649c-1.742,0-3.166-1.424-3.166-3.166v-3.859
			c0-0.283,0.037-0.557,0.111-0.82c-0.472-0.191-0.939-0.4-1.402-0.625c-8.283-3.994-14.763-12.75-14.763-26.127v-1.568h-0.75
			c-1.308,0-2.378-1.072-2.378-2.381v-2.9c0-1.309,1.07-2.379,2.378-2.379h0.75v-0.059H106.095L106.095,108.717z"/>
	</g>
</g>
<g id="icon-persianas" display="none">
	<g display="inline">
		<path d="M44.331,61.223h83.505v-5.961H52.282L44.331,61.223z M44.331,61.223"/>
		<path d="M133.807,55.262v5.961h19.883l-7.951-5.961H133.807z M133.807,55.262"/>
		<path d="M127.836,69.172v-5.958H52.282l-7.951,5.958H127.836z M127.836,69.172"/>
		<path d="M133.807,63.214v5.958h19.883l-7.951-5.958H133.807z M133.807,63.214"/>
		<path d="M127.836,77.138v-5.973H52.282l-7.951,5.973H127.836z M127.836,77.138"/>
		<path d="M133.807,71.165v5.973h19.883l-7.951-5.973H133.807z M133.807,71.165"/>
		<path d="M133.807,79.116v5.971h19.883l-7.951-5.971H133.807z M133.807,79.116"/>
		<path d="M127.836,85.087v-5.971H52.282l-7.951,5.971H127.836z M127.836,85.087"/>
		<path d="M127.836,93.038v-5.959H52.282l-7.951,5.959H127.836z M127.836,93.038"/>
		<path d="M133.807,87.079v5.959h19.883l-7.951-5.959H133.807z M133.807,87.079"/>
		<path d="M127.836,100.989v-5.961H52.282l-7.951,5.961H127.836z M127.836,100.989"/>
		<path d="M133.807,95.028v5.961h19.883l-7.951-5.961H133.807z M133.807,95.028"/>
		<path d="M127.836,108.941v-5.962H52.282l-7.951,5.962H127.836z M127.836,108.941"/>
		<path d="M133.807,102.979v5.962h19.883l-7.951-5.962H133.807z M133.807,102.979"/>
		<path d="M127.836,116.903v-5.973H52.282l-7.951,5.973H127.836z M127.836,116.903"/>
		<path d="M133.807,110.931v5.973h19.883l-7.951-5.973H133.807z M133.807,110.931"/>
		<path d="M133.807,118.88v5.972h19.883l-7.951-5.972H133.807z M133.807,118.88"/>
		<path d="M127.836,124.852v-5.972H52.282l-7.951,5.972H127.836z M127.836,124.852"/>
		<path d="M133.807,126.848v5.957h19.883l-7.951-5.957H133.807z M133.807,126.848"/>
		<path d="M127.836,132.805v-5.957H52.282l-7.951,5.957H127.836z M127.836,132.805"/>
		<path d="M126.271,140.758c0.34-0.777,0.893-1.449,1.564-1.965v-3.998H52.282l-7.951,5.963H126.271z M126.271,140.758"/>
		<path d="M133.807,134.795v3.998c0.668,0.516,1.223,1.188,1.563,1.965h18.32l-7.951-5.963H133.807z M133.807,134.795"/>
		<path d="M135.795,142.746c0,2.738-2.232,4.971-4.971,4.971c-2.748,0-4.969-2.232-4.969-4.971H52.282l-7.951,5.959h109.358
			l-7.951-5.959H135.795z M135.795,142.746"/>
		<path d="M52.282,150.697l-7.951,5.973h109.358l-7.951-5.973H52.282z M52.282,150.697"/>
		<path d="M131.814,137.871V55.262h-1.99v82.609c0.32-0.053,0.662-0.096,1-0.096C131.164,137.775,131.494,137.818,131.814,137.871
			L131.814,137.871z M131.814,137.871"/>
		<rect x="42.34" y="43.33" width="115.32" height="9.941"/>
		<path d="M128.611,140.758c-0.477,0.531-0.775,1.221-0.775,1.988c0,1.641,1.338,2.98,2.988,2.98c1.641,0,2.982-1.34,2.982-2.98
			c0-0.768-0.303-1.457-0.777-1.988c-0.33-0.359-0.738-0.643-1.215-0.809c-0.311-0.117-0.641-0.184-0.99-0.184s-0.689,0.066-1,0.184
			C129.359,140.115,128.941,140.398,128.611,140.758L128.611,140.758z M128.611,140.758"/>
	</g>
</g>
<g id="icon-tv-video" display="none">
	<g display="inline">
		<path fill="#333333" d="M140.801,145.324h-22.664v-4.535c0-2.496-2.035-4.539-4.536-4.539H86.399c-2.5,0-4.537,4.539-4.537,4.539
			v4.535H59.199c-2.502,0-4.537,2.258-4.537,4.543h90.654C145.316,147.359,143.278,145.324,140.801,145.324L140.801,145.324z
			 M140.801,145.324"/>
		<path fill="#333333" d="M154.39,50.133H45.609c-2.501,0-4.537,2.037-4.537,4.538v72.533c0,2.475,2.036,4.504,4.537,4.504h108.78
			c2.501,0,4.538-2.029,4.538-4.504V54.67C158.928,52.169,156.891,50.133,154.39,50.133L154.39,50.133z M149.853,118.123H50.146
			V59.212h99.706V118.123z M149.853,118.123"/>
	</g>
</g>
<g id="icon-informatica" display="none">
	<g display="inline">
		<path d="M52.293,128.826c0.292,5.656,8.458,5.656,8.763,0C60.751,123.197,51.988,123.184,52.293,128.826L52.293,128.826z
			 M52.293,128.826"/>
		<g>
			<defs>
				<rect id="SVGID_7_" x="32.702" y="44.984" width="134.596" height="110.031"/>
			</defs>
			<clipPath id="SVGID_8_">
				<use xlink:href="#SVGID_7_"  overflow="visible"/>
			</clipPath>
			<path clip-path="url(#SVGID_8_)" d="M80.98,55.795v-9.969H32.702v105.529h48.292v-6.266c0.042-0.223,0.055-0.443,0-0.639V141.4
				H80.98V55.795z M48.494,113.449c-0.526,1.428-1.691,2.759-3.383,2.537c-1.969-0.264-3.688-1.512-3.688-3.703
				c0-2.189,1.719-3.424,3.688-3.688c1.775-0.235,2.967,1.234,3.467,2.746c0.166,0.291,0.263,0.596,0.222,0.941
				C48.869,112.771,48.716,113.145,48.494,113.449L48.494,113.449z M56.688,135.66c-3.549-0.18-7.057-2.967-6.849-6.822
				c0.194-3.563,2.981-7.043,6.849-6.848c3.869,0.223,6.614,2.982,6.822,6.848C63.316,132.375,60.543,135.869,56.688,135.66
				L56.688,135.66z M53.195,111.951c0-2.19,1.719-3.438,3.688-3.701c1.775-0.236,2.967,1.248,3.467,2.759
				c0.166,0.278,0.277,0.597,0.235,0.942c0.056,0.487-0.083,0.847-0.318,1.151c-0.527,1.429-1.692,2.759-3.384,2.537
				C54.914,115.377,53.195,114.129,53.195,111.951L53.195,111.951z M72.343,113.103c-0.541,1.429-1.691,2.759-3.383,2.537
				c-1.983-0.263-3.702-1.511-3.702-3.688c0-2.19,1.719-3.438,3.702-3.701c1.775-0.236,2.953,1.248,3.452,2.759
				c0.167,0.278,0.278,0.597,0.236,0.942C72.703,112.438,72.564,112.798,72.343,113.103L72.343,113.103z M70.304,95.353H43.752
				c-3.688,0-3.688-5.727,0-5.727h26.552C73.992,89.626,73.992,95.353,70.304,95.353L70.304,95.353z M70.595,85.022H44.044
				c-3.689,0-3.689-5.723,0-5.723h26.551C74.283,79.3,74.283,85.022,70.595,85.022L70.595,85.022z M70.595,74H44.044
				c-3.689,0-3.689-5.727,0-5.727h26.551C74.283,68.273,74.283,74,70.595,74L70.595,74z M70.595,63.49H44.044
				c-3.689,0-3.689-5.727,0-5.727h26.551C74.283,57.764,74.283,63.49,70.595,63.49L70.595,63.49z M70.595,63.49"/>
			<path clip-path="url(#SVGID_8_)" d="M111.372,144.092h20.077v7.598h15.141v-7.598h20.757v-36.923h-55.975V144.092z
				 M117.044,112.854h44.631v25.566h-44.631V112.854z M117.044,112.854"/>
			<path clip-path="url(#SVGID_8_)" d="M111.372,44.984V81.89h20.077v7.615h15.141V81.89h20.757V44.984H111.372z M161.675,76.219
				h-44.631V50.651h44.631V76.219z M161.675,76.219"/>
		</g>
		<rect x="123.297" y="89.644" width="31.444" height="1.563"/>
		<path d="M92.849,61.538h-1.691v32.469h-7.071v3.98h7.071v27.511h16.028v-3.967h-12.34V67.511c0-0.956,0.014-1.566,0.042-1.996
			h12.299v-3.977H92.849z M92.849,61.538"/>
	</g>
</g>
<g id="icon-calidad" display="none">
	<g display="inline">
		<g>
			<defs>
				<rect id="SVGID_9_" x="51.24" y="63.061" width="97.52" height="73.879"/>
			</defs>
			<clipPath id="SVGID_10_">
				<use xlink:href="#SVGID_9_"  overflow="visible"/>
			</clipPath>
			<path clip-path="url(#SVGID_10_)" fill="#050505" d="M94.91,131.701c-4.38,4.37-11.472,4.37-15.842,0l-24.551-24.549
				c-4.37-4.372-4.37-11.462,0-15.841c4.379-4.373,11.471-4.373,15.842,0l14.624,14.625c1.103,1.103,2.898,1.103,4.001,0
				l39.595-39.6c4.383-4.369,11.475-4.369,15.845,0c2.102,2.104,3.285,4.958,3.285,7.926s-1.184,5.813-3.285,7.916L94.91,131.701z
				 M94.91,131.701"/>
		</g>
	</g>
</g>
<g id="icon-descuento" display="none">
	<g display="inline">
		<path d="M114.511,95.394c2.043-1.364,4.444-1.956,6.789-1.686l26.855-26.853l-15.021-15.037l-26.868,26.849
			c0.287,2.386-0.322,4.822-1.739,6.901L114.511,95.394z M114.511,95.394"/>
		<g>
			<defs>
				<rect id="SVGID_11_" x="49.892" y="51.819" width="100.217" height="96.363"/>
			</defs>
			<clipPath id="SVGID_12_">
				<use xlink:href="#SVGID_11_"  overflow="visible"/>
			</clipPath>
			<path clip-path="url(#SVGID_12_)" d="M67.673,128.105l-0.986-0.984l-5.091,4.121l-8.565,13.516l2.185,2.188l13.531-8.568
				l4.107-5.072l-0.968-1.004l17.084-17.064l-4.249-4.193L67.673,128.105z M67.673,128.105"/>
			<path clip-path="url(#SVGID_12_)" d="M91.028,80.745c1.975-7.06,0.18-14.927-5.359-20.465c-5.5-5.505-13.302-7.295-20.31-5.396
				L77.227,66.75l-3.103,11.615l-11.632,3.119L50.627,69.618c-1.901,7.006-0.105,14.786,5.395,20.304
				c5.771,5.773,14.086,7.459,21.346,5.096l0.074,0.069l48.827,48.809c1.912,1.938,4.463,2.904,6.99,2.904
				c2.526,0,5.055-0.967,6.99-2.904c3.854-3.836,3.854-10.109,0-13.98L91.028,80.745z M134.102,142.248
				c-2.079,0-3.764-1.703-3.764-3.781c0-2.098,1.685-3.781,3.764-3.781c2.097,0,3.782,1.684,3.782,3.781
				C137.902,140.545,136.198,142.248,134.102,142.248L134.102,142.248z M134.102,142.248"/>
		</g>
	</g>
</g>
<g id="icon-list-home" display="none">
	<g display="inline">
		<path d="M82.525,54.399l-10.65,10.648l34.952,34.957l-34.952,34.946l10.65,10.649l45.6-45.596L82.525,54.399z M82.525,54.399"/>
	</g>
</g>
<g id="icon-24-horas" display="none">
	<g display="inline">
		<g>
			<defs>
				<rect id="SVGID_13_" x="45.07" y="44.911" width="109.859" height="110.178"/>
			</defs>
			<clipPath id="SVGID_14_">
				<use xlink:href="#SVGID_13_"  overflow="visible"/>
			</clipPath>
			<path clip-path="url(#SVGID_14_)" d="M154.954,99.824c0,30.297-24.653,54.948-54.95,54.948
				c-30.283,0-54.934-24.651-54.934-54.948c0-30.296,24.65-54.934,54.934-54.934c11.076,0,21.854,3.378,30.942,9.569l8.444-8.443
				l6.788,26.041l-26.06-6.786l5.911-5.912c-7.731-4.968-16.754-7.681-26.026-7.681c-26.559,0-48.159,21.592-48.159,48.146
				c0,26.556,21.601,48.161,48.159,48.161c26.556,0,48.163-21.605,48.163-48.161H154.954z M86.343,100.316
				c-4.631,3.266-7.782,6.08-9.452,8.452c-1.689,2.363-2.516,5.21-2.516,8.539h24.734v-6.275H83.232l0.016-0.049
				c1.21-1.673,3.442-3.561,6.706-5.631c3.526-2.25,5.944-4.287,7.235-6.094c1.294-1.816,1.92-4.089,1.92-6.853
				c0-3.344-1.128-6.09-3.377-8.209c-2.284-2.119-5.196-3.18-8.756-3.18c-3.846,0-6.854,1.141-9.025,3.459
				c-2.186,2.302-3.212,5.411-3.098,9.354h6.988c-0.066-2.12,0.348-3.777,1.276-5.003c0.907-1.241,2.184-1.835,3.807-1.835
				c1.504,0,2.746,0.479,3.675,1.471c0.927,0.979,1.389,2.256,1.389,3.879c0,1.471-0.428,2.814-1.271,4.022
				C89.869,97.556,88.416,98.895,86.343,100.316L86.343,100.316z M115.6,117.308v-7.997h-14.354v-6.159l13.41-22.134h7.964v22.627
				h4.089v5.683h-4.089v7.98H115.6z M115.6,103.645V88.532l-8.808,14.619l-0.298,0.493H115.6z M102.239,57.239h-3.392v6.807h3.392
				V57.239z M102.239,134.277h-3.392v6.806h3.392V134.277z M142.452,100.846v-3.388h-6.803v3.388H142.452z M65.418,100.846v-3.388
				h-6.807v3.388H65.418z M65.418,100.846"/>
		</g>
	</g>
</g>
</svg>
